<svg width="63" height="67" viewBox="0 0 63 67" fill="none" xmlns="http://www.w3.org/2000/svg">
<path d="M32.576 32.4458C32.8171 32.6983 32.9516 33.034 32.9516 33.3831C32.9516 33.7321 32.8171 34.0678 32.576 34.3203L2.6629 66.0375C2.46809 66.2451 2.21589 66.39 1.93844 66.4538C1.66099 66.5175 1.37084 66.4972 1.10496 66.3955C0.840982 66.2971 0.613445 66.1202 0.452927 65.8887C0.292409 65.6571 0.206602 65.382 0.207033 65.1003V1.66581C0.206602 1.38408 0.292409 1.10896 0.452927 0.877434C0.613445 0.645904 0.840982 0.469049 1.10496 0.370634C1.37064 0.268642 1.66067 0.248021 1.93811 0.311393C2.21554 0.374766 2.46785 0.519267 2.6629 0.726498L32.576 32.4437V32.4458ZM36.5277 36.6375L43.4691 44.0568C43.6123 44.2062 43.7195 44.3863 43.7825 44.5834C43.8455 44.7805 43.8627 44.9893 43.8328 45.1941C43.8029 45.3988 43.7266 45.594 43.6098 45.7648C43.493 45.9356 43.3387 46.0775 43.1588 46.1796C33.0779 52.0365 22.9653 57.8386 12.8215 63.5858C12.5295 63.7517 12.1886 63.8099 11.8581 63.7501C11.5277 63.6904 11.2287 63.5165 11.0132 63.2589C10.8013 63.004 10.6902 62.6803 10.7009 62.349C10.7116 62.0176 10.8433 61.7017 11.0712 61.461L34.4381 36.6396C34.7162 36.3644 35.0916 36.2101 35.4829 36.2101C35.8741 36.2101 36.2496 36.3644 36.5277 36.6396V36.6375ZM60.8795 30.9562L60.7677 30.9272C61.6946 31.4031 62.276 32.3444 62.276 33.3686C62.276 34.3927 61.6967 35.3341 60.7677 35.8099L48.1822 43.1755C47.9046 43.3353 47.5815 43.3976 47.2643 43.3526C46.9471 43.3077 46.6541 43.1579 46.4319 42.9272L38.305 34.3203C38.0639 34.0678 37.9294 33.7321 37.9294 33.3831C37.9294 33.034 38.0639 32.6983 38.305 32.4458L46.4319 23.8389C46.6541 23.6082 46.9471 23.4585 47.2643 23.4135C47.5815 23.3685 47.9046 23.4308 48.1822 23.5906L60.8815 30.9562H60.8795ZM34.467 30.1286L11.1001 5.33202C10.8728 5.0914 10.7414 4.7759 10.7308 4.44506C10.7201 4.11422 10.8309 3.79092 11.0422 3.53615C11.2576 3.27853 11.5566 3.10468 11.8871 3.04494C12.2176 2.9852 12.5585 3.04335 12.8505 3.20926C21.8505 8.34029 33.085 14.7665 43.2146 20.6134C43.3946 20.7155 43.5488 20.8574 43.6656 21.0282C43.7824 21.199 43.8587 21.3942 43.8887 21.5989C43.9186 21.8037 43.9014 22.0125 43.8384 22.2096C43.7753 22.4067 43.6681 22.5868 43.525 22.7362L36.5546 30.1286C36.421 30.2721 36.2593 30.3865 36.0796 30.4647C35.8998 30.543 35.7058 30.5834 35.5098 30.5834C35.3137 30.5834 35.1198 30.543 34.94 30.4647C34.7603 30.3865 34.5986 30.2721 34.465 30.1286H34.467Z" fill="#999999"/>
</svg>
