<svg width="63" height="75" viewBox="0 0 63 75" fill="none" xmlns="http://www.w3.org/2000/svg">
<path d="M32.6162 18.6408V18.6698C32.2051 18.6692 31.8109 18.5055 31.5203 18.2146C31.2298 17.9236 31.0666 17.5292 31.0666 17.118C30.9841 13.124 32.3034 9.22725 34.7954 6.10485C37.2873 2.98244 40.7944 0.831704 44.7073 0.0263211C44.9311 -0.0159546 45.1615 -0.00721427 45.3814 0.0518908C45.6014 0.110996 45.8052 0.218945 45.9776 0.367702C46.1598 0.512198 46.3073 0.695805 46.409 0.904947C46.5107 1.11409 46.5641 1.34342 46.5652 1.57598C46.641 5.56482 45.3188 9.45446 42.8278 12.5708C40.3369 15.6872 36.8341 17.8338 32.9266 18.6387H32.6162V18.6408ZM61.0438 51.3077C61.2397 51.368 61.4217 51.4666 61.5793 51.5976C61.7369 51.7287 61.8669 51.8896 61.962 52.0712C62.057 52.2528 62.1151 52.4514 62.1329 52.6556C62.1508 52.8598 62.128 53.0655 62.0659 53.2608C58.6562 63.5291 52.1142 74.4822 46.5652 74.4822C43.563 74.5166 40.5897 73.8923 37.8549 72.6532C36.2198 71.8591 34.4334 71.4252 32.6162 71.3808C30.7991 71.4252 29.0127 71.8591 27.3776 72.6532C24.6428 73.8923 21.6695 74.5166 18.6673 74.4822C11.848 74.4822 0.0693359 57.6036 0.0693359 40.3546C0.0693359 19.2594 16.7762 18.6387 18.6693 18.6387C21.1694 18.6924 23.6341 19.2409 25.9211 20.2525C28.0314 21.1918 30.3073 21.6967 32.6162 21.7422C34.9258 21.6982 37.203 21.1916 39.3135 20.2525C41.6006 19.2416 44.0652 18.6931 46.5652 18.6387C49.0876 18.6641 51.5785 19.2025 53.8862 20.2212C56.1939 21.2399 58.2702 22.7176 59.9887 24.5643C60.1449 24.7358 60.2608 24.9402 60.3276 25.1624C60.3945 25.3846 60.4106 25.619 60.3749 25.8483C60.3391 26.0776 60.2524 26.2959 60.1211 26.4873C59.9898 26.6786 59.8173 26.8381 59.6162 26.9539C57.5316 28.1736 55.8025 29.9177 54.6007 32.0127C53.399 34.1077 52.7664 36.4807 52.7659 38.896C52.7524 41.5535 53.5329 44.1545 55.0074 46.3655C56.4819 48.5765 58.5832 50.2967 61.0418 51.3056L61.0438 51.3077Z" fill="#999999"/>
</svg>
