<svg width="67" height="67" viewBox="0 0 67 67" fill="none" xmlns="http://www.w3.org/2000/svg">
<path d="M33.1034 45.6913C29.838 45.6913 26.7063 44.3941 24.3973 42.085C22.0882 39.776 20.791 36.6443 20.791 33.3789C20.791 30.1134 22.0882 26.9817 24.3973 24.6727C26.7063 22.3636 29.838 21.0664 33.1034 21.0664C36.3689 21.0664 39.5006 22.3636 41.8096 24.6727C44.1187 26.9817 45.4159 30.1134 45.4159 33.3789C45.4159 36.6443 44.1187 39.776 41.8096 42.085C39.5006 44.3941 36.3689 45.6913 33.1034 45.6913ZM33.029 18.7078C29.3412 18.7265 25.7956 20.1332 23.0981 22.6479C20.4005 25.1625 18.7488 28.6007 18.4717 32.2782L7.12138 12.8651C10.2171 8.93717 14.164 5.76321 18.6647 3.58241C23.1653 1.40161 28.1023 0.270871 33.1034 0.275404C46.1172 0.275404 57.3745 7.78575 62.7828 18.7078H33.031H33.029ZM33.1034 48.0499C35.4993 48.0499 37.7586 47.4768 39.7552 46.4589L28.3345 66.1389C12.3124 63.8258 0 50.0423 0 33.3789C0 26.5554 2.06483 20.214 5.60483 14.9444L19.3034 38.3733C20.3309 41.2086 22.2068 43.6586 24.676 45.3899C27.1452 47.1213 30.0877 48.0501 33.1034 48.0499ZM63.84 21.0685C65.4081 24.9831 66.2115 29.1619 66.2069 33.3789C66.2069 51.6623 51.3869 66.4823 33.1034 66.4823C32.3648 66.4823 31.6345 66.4554 30.9062 66.4078L46.0055 40.3906L45.9972 40.3844C47.1679 38.2351 47.7797 35.8262 47.7765 33.3789C47.7777 30.9309 47.1658 28.5217 45.9967 26.371C44.8275 24.2203 43.1384 22.3966 41.0834 21.0664H63.84V21.0685Z" fill="#999999"/>
</svg>
