<svg width="20" height="24" viewBox="0 0 20 24" fill="none" xmlns="http://www.w3.org/2000/svg">
<path d="M18.9142 8.18242C18.775 8.29043 16.3174 9.67537 16.3174 12.7549C16.3174 16.3168 19.4446 17.577 19.5382 17.6082C19.5238 17.685 19.0414 19.3339 17.8894 21.0141C16.8622 22.4926 15.7895 23.9688 14.1575 23.9688C12.5255 23.9688 12.1055 23.0207 10.2215 23.0207C8.38552 23.0207 7.73273 24 6.23994 24C4.74716 24 3.70557 22.6319 2.50798 20.9517C1.12079 18.9787 0 15.9136 0 13.0045C0 8.33843 3.03357 5.86379 6.01914 5.86379C7.60553 5.86379 8.92792 6.90549 9.92391 6.90549C10.8719 6.90549 12.3503 5.80138 14.1551 5.80138C14.8391 5.80138 17.2966 5.86379 18.9142 8.18242ZM13.2983 3.82598C14.0447 2.94029 14.5727 1.71137 14.5727 0.482448C14.5727 0.312031 14.5583 0.139214 14.5271 0C13.3127 0.0456046 11.8679 0.808881 10.9967 1.81938C10.3127 2.59706 9.67431 3.82598 9.67431 5.07171C9.67431 5.25893 9.70551 5.44614 9.71991 5.50615C9.79671 5.52055 9.92151 5.53735 10.0463 5.53735C11.1359 5.53735 12.5063 4.80768 13.2983 3.82598Z" fill="white"/>
</svg>
