<svg width="50" height="50" viewBox="0 0 50 50" fill="none" xmlns="http://www.w3.org/2000/svg">
<path fill-rule="evenodd" clip-rule="evenodd" d="M45 7.5H22.2L20 0H5C2.25 0 0 2.25 0 5V37.5C0 40.25 2.25 42.5 5 42.5H22.5L25 50H45C47.75 50 50 47.75 50 45V12.5C50 9.75 47.75 7.5 45 7.5ZM12.925 31.4748C7.29999 31.4748 2.69999 26.8998 2.69999 21.2498C2.69999 15.5998 7.27499 11.0248 12.925 11.0248C15.525 11.0248 17.9 11.9498 19.775 13.6998L19.95 13.8498L16.875 16.7998L16.725 16.6748C16 15.9998 14.775 15.1998 12.925 15.1998C9.64999 15.1998 6.97499 17.9248 6.97499 21.2498C6.97499 24.5748 9.64999 27.2998 12.925 27.2998C16.35 27.2998 17.825 25.1248 18.225 23.6498H12.7V19.7748H22.575L22.6 19.9498C22.7 20.4748 22.725 20.9498 22.725 21.4748C22.725 27.3498 18.7 31.4748 12.925 31.4748ZM30.9754 31.4503C29.8504 30.1503 28.8254 28.7003 28.0004 27.2003L29.6254 32.7753L30.9754 31.4503ZM29.9247 25.3002H27.4497L26.6747 22.7002H36.6497C36.6497 22.7002 35.7997 25.9752 32.7497 29.5502C31.4497 28.0002 30.5247 26.4752 29.9247 25.3002ZM45.0004 47.5C46.3754 47.5 47.5004 46.375 47.5004 45V12.5C47.5004 11.125 46.3754 9.99997 45.0004 9.99997H22.9504L25.9004 20.1H30.8004V17.5H33.4004V20.1H42.5004V22.7H39.3254C38.5254 25.85 36.7754 28.9 34.5254 31.475L41.3004 38.175L39.4754 40L32.7754 33.275L30.4754 35.575L32.5004 42.5L27.5004 47.5H45.0004Z" fill="black"/>
</svg>
