<svg width="50" height="50" viewBox="0 0 50 50" fill="none" xmlns="http://www.w3.org/2000/svg">
<path fill-rule="evenodd" clip-rule="evenodd" d="M25.0002 0C11.1948 0 0 11.3836 0 25.427C0 36.6615 7.16332 46.1928 17.0967 49.555C18.3461 49.7904 18.8048 49.0034 18.8048 48.3318C18.8048 47.7255 18.7816 45.7225 18.7709 43.5978C11.8158 45.1359 10.3482 40.5977 10.3482 40.5977C9.21093 37.6586 7.57234 36.8771 7.57234 36.8771C5.30408 35.299 7.74332 35.3314 7.74332 35.3314C10.2538 35.5103 11.5757 37.9517 11.5757 37.9517C13.8054 41.839 17.4241 40.7152 18.8508 40.0654C19.0751 38.4224 19.723 37.2999 20.438 36.6653C14.8851 36.0223 9.04782 33.8421 9.04782 24.099C9.04782 21.3229 10.0244 19.0546 11.6237 17.2739C11.3641 16.633 10.5084 14.0472 11.8659 10.5448C11.8659 10.5448 13.9652 9.86141 18.7427 13.1512C20.7369 12.5878 22.8756 12.3053 25.0002 12.2956C27.1248 12.3053 29.2652 12.5878 31.2631 13.1512C36.0348 9.86141 38.1312 10.5448 38.1312 10.5448C39.492 14.0472 38.6359 16.633 38.3763 17.2739C39.9793 19.0546 40.9493 21.3229 40.9493 24.099C40.9493 33.8652 35.1008 36.0156 29.5338 36.6451C30.4306 37.4342 31.2296 38.9816 31.2296 41.3539C31.2296 44.7557 31.2006 47.4939 31.2006 48.3318C31.2006 49.0085 31.6506 49.8014 32.9178 49.5517C42.8458 46.1857 50 36.6577 50 25.427C50 11.3836 38.8069 0 25.0002 0Z" fill="black"/>
<path fill-rule="evenodd" clip-rule="evenodd" d="M9.46885 36.5078C9.41379 36.6346 9.21838 36.6721 9.04036 36.5853C8.85903 36.5024 8.75719 36.3302 8.81598 36.2034C8.8698 36.0733 9.06562 36.0375 9.24653 36.1238C9.42827 36.2072 9.53177 36.3811 9.46885 36.5078Z" fill="black"/>
<path fill-rule="evenodd" clip-rule="evenodd" d="M10.4815 37.6565C10.3622 37.7689 10.1292 37.7167 9.97102 37.539C9.80749 37.3618 9.77686 37.1247 9.89774 37.0106C10.0207 36.8982 10.2467 36.9508 10.4107 37.1281C10.5742 37.3074 10.6061 37.5428 10.4815 37.6565Z" fill="black"/>
<path fill-rule="evenodd" clip-rule="evenodd" d="M11.4672 39.121C11.314 39.2292 11.0635 39.1277 10.9087 38.9016C10.7555 38.6755 10.7555 38.4043 10.912 38.2957C11.0673 38.1871 11.314 38.2847 11.4709 38.5092C11.6237 38.7387 11.6237 39.0102 11.4672 39.121Z" fill="black"/>
<path fill-rule="evenodd" clip-rule="evenodd" d="M12.8176 40.5358C12.6806 40.6895 12.3887 40.6482 12.1751 40.4385C11.9565 40.2334 11.8957 39.9425 12.0331 39.7888C12.1718 39.6347 12.4653 39.6781 12.6806 39.8861C12.8975 40.0907 12.9638 40.3838 12.8176 40.5358Z" fill="black"/>
<path fill-rule="evenodd" clip-rule="evenodd" d="M14.6806 41.3573C14.6202 41.5564 14.3391 41.647 14.0559 41.5623C13.7731 41.4752 13.5881 41.2419 13.6452 41.0406C13.704 40.8402 13.9863 40.7459 14.2716 40.8364C14.5539 40.9232 14.7394 41.1547 14.6806 41.3573Z" fill="black"/>
<path fill-rule="evenodd" clip-rule="evenodd" d="M16.7266 41.5097C16.7336 41.7194 16.4935 41.8933 16.1962 41.8967C15.8973 41.9038 15.6556 41.7341 15.6522 41.5278C15.6522 41.316 15.887 41.1438 16.1859 41.1387C16.4831 41.1328 16.7266 41.3013 16.7266 41.5097Z" fill="black"/>
<path fill-rule="evenodd" clip-rule="evenodd" d="M18.6305 41.18C18.6661 41.3846 18.4595 41.5948 18.1644 41.6503C17.8741 41.7047 17.6055 41.5783 17.5686 41.3754C17.5326 41.1657 17.7429 40.9556 18.0327 40.9013C18.3283 40.849 18.5928 40.972 18.6305 41.18Z" fill="black"/>
</svg>
