<svg width="50" height="50" viewBox="0 0 50 50" fill="none" xmlns="http://www.w3.org/2000/svg">
<path fill-rule="evenodd" clip-rule="evenodd" d="M5.55556 0.588497H38.8889L50 11.3555V43.6563C50 46.6173 47.5 49.0398 44.4444 49.0398H5.55556C2.47222 49.0398 0 46.6173 0 43.6563V5.97198C0 3.01106 2.47222 0.588497 5.55556 0.588497ZM5.55557 43.6561H44.4445V13.5894L36.5833 5.97173H5.55557V43.6561ZM25.0001 24.8141C20.389 24.8141 16.6668 28.4211 16.6668 32.8894C16.6668 37.3577 20.389 40.9646 25.0001 40.9646C29.6112 40.9646 33.3334 37.3577 33.3334 32.8894C33.3334 28.4211 29.6112 24.8141 25.0001 24.8141ZM33.3332 8.6639H8.33323V19.4309H33.3332V8.6639Z" fill="black"/>
</svg>
