<svg width="50" height="49" viewBox="0 0 50 49" fill="none" xmlns="http://www.w3.org/2000/svg">
<path fill-rule="evenodd" clip-rule="evenodd" d="M30.5556 5.72222V0C41.6944 2.52778 50 12.4722 50 24.3611C50 36.25 41.6944 46.1945 30.5556 48.7222V43C38.5833 40.6111 44.4444 33.1667 44.4444 24.3611C44.4444 15.5556 38.5833 8.11111 30.5556 5.72222ZM0 32.6944V16.0278H11.1111L25 2.13889V46.5833L11.1111 32.6944H0ZM19.4444 33.1667V15.5556L13.4167 21.5833H5.55556V27.1389H13.4167L19.4444 33.1667ZM37.5 24.3611C37.5 19.4444 34.6667 15.2222 30.5556 13.1667V35.5278C34.6667 33.5 37.5 29.2778 37.5 24.3611Z" fill="black"/>
</svg>
